<svg width="300" height="300" viewBox="0 0 300 300" fill="none" xmlns="http://www.w3.org/2000/svg">
<path d="M197.154 171.237L221.673 240.879C221.673 240.879 233.079 243.734 233.641 233.46C234.203 223.187 217.115 163.257 217.115 163.257C217.115 163.257 211.974 170.675 197.154 171.237Z" fill="#00C66D"/>
<path d="M182.313 78.7569L198.861 75.902L197.154 42.8115L178.9 56.5019L182.313 78.7569Z" fill="#00C66D"/>
<path d="M127.962 183.976C129.107 186.268 138.223 188.539 146.972 201.105C146.972 201.105 157.989 191.978 151.53 185.512C145.071 179.045 136.322 173.335 134.421 173.335C132.52 173.335 127.962 183.998 127.962 183.998V183.976Z" fill="#00C66D"/>
<path d="M43.6041 225.458C43.6041 225.458 40.5581 204.155 42.848 202.619C45.1378 201.105 74.3876 199.959 77.4335 203.376C80.4795 206.793 80.4794 217.845 79.7234 219.359C79.7234 219.359 66.8051 209.475 57.3 216.31C47.7949 223.166 43.6257 225.436 43.6257 225.436L43.6041 225.458Z" fill="#00C66D"/>
<path d="M161.597 39.7403C161.402 39.7403 161.208 39.6322 161.1 39.4376C160.668 38.5508 158.896 29.0995 160.884 24.3197C161.013 24.0386 161.337 23.8872 161.618 24.0169C161.899 24.1467 162.05 24.4711 161.921 24.7523C160.128 29.0779 161.705 38.075 162.094 38.9401C162.223 39.2213 162.094 39.5673 161.834 39.6971C161.748 39.7403 161.661 39.762 161.575 39.762L161.597 39.7403Z" fill="black"/>
<path d="M164.837 39.005C164.535 39.005 164.275 38.7454 164.275 38.4427C164.275 35.6743 164.729 28.7967 169.006 24.536C169.222 24.3197 169.59 24.3197 169.806 24.536C170.022 24.7523 170.022 25.1199 169.806 25.3362C165.831 29.3157 165.42 35.8257 165.42 38.4427C165.42 38.7454 165.161 39.005 164.859 39.005H164.837Z" fill="black"/>
<path d="M167.883 40.1296C167.559 40.1296 167.321 39.8917 167.321 39.5889C167.321 39.0266 169.935 29.532 175.833 26.8934C176.114 26.7636 176.459 26.8934 176.589 27.1746C176.718 27.4557 176.589 27.8018 176.308 27.9315C171.08 30.2673 168.531 38.9184 168.466 39.6105C168.445 39.8917 168.185 40.1296 167.905 40.1296H167.883Z" fill="black"/>
<path d="M171.102 41.6652C171.102 41.6652 170.929 41.6652 170.864 41.6003C170.583 41.4705 170.454 41.1245 170.605 40.8433C170.756 40.5189 174.58 32.6248 181.709 29.3374C181.989 29.2076 182.335 29.3374 182.465 29.6185C182.594 29.8997 182.465 30.2457 182.184 30.3755C175.422 33.4899 171.663 41.2543 171.62 41.3408C171.534 41.5354 171.318 41.6652 171.102 41.6652Z" fill="black"/>
<path d="M174.537 43.1791C174.407 43.1791 174.299 43.1358 174.191 43.0493C173.953 42.8547 173.91 42.5086 174.083 42.2491C174.299 41.9679 179.57 35.2417 185.727 32.9275C186.007 32.8194 186.353 32.9708 186.461 33.2519C186.569 33.5547 186.418 33.8791 186.137 33.9873C180.283 36.1933 175.033 42.8763 174.99 42.9412C174.882 43.0926 174.709 43.1575 174.537 43.1575V43.1791Z" fill="black"/>
<path d="M177.388 47.3749C177.237 47.3749 177.107 47.31 176.999 47.2019C176.783 46.9856 176.783 46.6179 176.999 46.4017C177.086 46.3152 177.237 46.0773 177.388 45.8177C178.511 44.0226 181.147 39.8052 189.917 36.388C190.198 36.2799 190.544 36.4096 190.652 36.7124C190.76 36.9936 190.63 37.3396 190.328 37.4478C181.903 40.7352 179.397 44.7147 178.339 46.4233C178.101 46.791 177.95 47.0505 177.777 47.2019C177.669 47.31 177.518 47.3749 177.388 47.3749Z" fill="black"/>
<path d="M179.851 50.5974C179.656 50.5974 179.462 50.4893 179.376 50.3163C179.224 50.0567 179.311 49.7107 179.57 49.5377C179.7 49.4511 180.11 49.0186 180.456 48.6077C182.292 46.553 186.137 42.2707 192.445 40.7135C192.747 40.627 193.05 40.8217 193.136 41.1244C193.201 41.4272 193.028 41.73 192.726 41.8165C186.764 43.2656 183.07 47.3965 181.298 49.3646C180.758 49.9702 180.412 50.3379 180.153 50.5109C180.067 50.5758 179.959 50.5974 179.872 50.5974H179.851Z" fill="black"/>
<path d="M158.572 40.9081C158.421 40.9081 158.27 40.8433 158.162 40.7351C153.301 35.4796 153.993 26.7852 154.014 26.4175C154.036 26.1147 154.317 25.8768 154.619 25.8985C154.922 25.9201 155.159 26.2012 155.138 26.504C155.138 26.5905 154.468 35.0686 158.983 39.9565C159.199 40.1944 159.177 40.5405 158.961 40.7567C158.853 40.8649 158.724 40.9081 158.572 40.9081Z" fill="black"/>
<path d="M156.671 42.2275C156.671 42.2275 156.52 42.2275 156.434 42.1843C147.62 38.2696 148.117 28.7967 148.117 28.6885C148.117 28.3857 148.398 28.1478 148.722 28.1695C149.024 28.1695 149.262 28.4506 149.24 28.775C149.24 29.1427 148.808 37.5775 156.887 41.1678C157.168 41.2975 157.298 41.6219 157.168 41.9031C157.082 42.1194 156.866 42.2491 156.65 42.2491L156.671 42.2275Z" fill="black"/>
<path d="M154.014 44.6931C154.014 44.6931 153.928 44.6931 153.885 44.6931C143.537 42.3573 142.63 34.2036 142.608 34.1171C142.587 33.8143 142.803 33.5331 143.105 33.5115C143.429 33.4899 143.688 33.7061 143.731 34.0089C143.753 34.3117 144.596 41.4489 154.122 43.59C154.425 43.6549 154.619 43.9577 154.554 44.2605C154.489 44.52 154.252 44.6931 154.014 44.6931Z" fill="black"/>
<path d="M149.046 47.5479C146.842 47.5479 143.278 46.8342 137.575 43.4819C137.316 43.3305 137.208 42.9845 137.38 42.7033C137.532 42.4438 137.877 42.3356 138.158 42.5087C146.194 47.2452 149.651 46.4882 151.141 46.1638C151.465 46.0989 151.703 46.034 151.94 46.034C152.243 46.034 152.502 46.2935 152.502 46.5963C152.502 46.8991 152.243 47.1586 151.94 47.1586C151.832 47.1586 151.616 47.2019 151.379 47.2452C150.86 47.3533 150.104 47.5263 149.067 47.5263L149.046 47.5479Z" fill="black"/>
<path d="M143.321 52.7386C141.096 52.7386 138.288 52.3277 134.831 51.1381C134.529 51.03 134.378 50.7272 134.486 50.4244C134.594 50.1216 134.918 49.9702 135.198 50.0784C145.87 53.6902 149.759 49.6891 149.802 49.6674C150.018 49.4512 150.363 49.4295 150.601 49.6458C150.839 49.8621 150.839 50.2081 150.644 50.446C150.515 50.5758 148.441 52.7602 143.343 52.7602L143.321 52.7386Z" fill="black"/>
<path d="M141.247 58.9673C137.207 58.9673 133.773 58.059 133.535 57.9941C133.233 57.9076 133.06 57.6048 133.146 57.302C133.233 56.9992 133.535 56.8262 133.838 56.9127C133.924 56.9343 143.559 59.4648 149.175 56.026C149.434 55.8529 149.78 55.9395 149.953 56.2206C150.126 56.4802 150.039 56.8262 149.759 56.9992C147.253 58.5348 144.12 58.989 141.269 58.989L141.247 58.9673Z" fill="black"/>
<path d="M138.979 65.6721C135.717 65.6721 133.946 64.8718 133.816 64.8286C133.535 64.6988 133.406 64.3528 133.535 64.0716C133.665 63.7905 134.01 63.6607 134.291 63.7905C134.334 63.8121 139.562 66.1046 148.873 62.4495C149.154 62.3414 149.499 62.4712 149.607 62.7739C149.715 63.0551 149.586 63.4012 149.283 63.5093C144.984 65.1963 141.528 65.6721 138.979 65.6721Z" fill="black"/>
<path d="M138.871 72.2901C136.322 72.2901 135.047 71.7062 134.939 71.6629C134.658 71.5331 134.55 71.1871 134.68 70.9059C134.81 70.6248 135.155 70.5166 135.436 70.6464C135.479 70.668 140.145 72.7443 150.169 68.3538C150.45 68.2241 150.795 68.3538 150.903 68.635C151.033 68.9162 150.903 69.2622 150.623 69.3704C145.33 71.6845 141.442 72.2685 138.871 72.2685V72.2901Z" fill="black"/>
<path d="M140.167 79.4489C137.575 79.4489 135.933 78.9731 135.782 78.9298C135.479 78.8433 135.307 78.5189 135.393 78.2377C135.479 77.935 135.803 77.7619 136.084 77.8484C136.149 77.8484 143.019 79.8166 151.055 75.4261C151.336 75.2747 151.681 75.3829 151.811 75.6424C151.962 75.9236 151.854 76.2696 151.595 76.3994C147.123 78.8433 143.04 79.4273 140.145 79.4273L140.167 79.4489Z" fill="black"/>
<path d="M140.815 86.824C138.352 86.824 137.251 86.1535 137.164 86.0886C136.905 85.9156 136.819 85.5696 136.991 85.31C137.164 85.0505 137.51 84.9856 137.769 85.137C137.834 85.1803 141.593 87.3214 151.487 82.8228C151.768 82.6931 152.113 82.8228 152.243 83.104C152.372 83.3852 152.243 83.7312 151.962 83.861C146.777 86.2184 143.17 86.824 140.815 86.824Z" fill="black"/>
<path d="M142.932 92.2526C140.059 92.2526 138.18 91.5172 138.028 91.4523C137.748 91.3442 137.596 90.9982 137.726 90.717C137.834 90.4358 138.18 90.2844 138.46 90.4142C138.525 90.4358 145.33 93.0744 153.129 87.7972C153.388 87.6242 153.733 87.6891 153.906 87.9486C154.079 88.2082 154.014 88.5542 153.755 88.7272C149.607 91.5172 145.784 92.2309 142.932 92.2309V92.2526Z" fill="black"/>
<path d="M142.738 97.746C141.29 97.746 140.34 97.6163 140.232 97.5946C139.929 97.5514 139.713 97.2702 139.757 96.9458C139.8 96.643 140.081 96.4267 140.405 96.47C140.469 96.47 148.052 97.5297 154.057 93.334C154.317 93.1609 154.662 93.2258 154.835 93.4637C155.008 93.7233 154.943 94.0693 154.706 94.2423C150.471 97.2053 145.611 97.7244 142.738 97.7244V97.746Z" fill="black"/>
<path d="M143.991 105.337C142.759 105.337 142.025 105.208 141.938 105.186C141.636 105.121 141.42 104.84 141.485 104.537C141.55 104.234 141.83 104.04 142.133 104.083C142.198 104.083 148.311 105.121 156.002 100.731C156.261 100.579 156.607 100.666 156.779 100.947C156.952 101.228 156.844 101.553 156.563 101.726C151.141 104.818 146.518 105.359 143.991 105.359V105.337Z" fill="black"/>
<path d="M145.74 109.101C143.883 109.101 142.759 108.841 142.651 108.798C142.349 108.711 142.176 108.409 142.241 108.106C142.306 107.803 142.63 107.63 142.932 107.695C142.997 107.695 148.916 109.101 156.606 105.078C156.887 104.926 157.233 105.035 157.363 105.316C157.514 105.597 157.406 105.943 157.125 106.073C152.394 108.538 148.354 109.079 145.74 109.079V109.101Z" fill="black"/>
<path d="M144.855 113.21C144.682 113.21 144.488 113.21 144.315 113.21H144.142C143.839 113.21 143.58 112.95 143.58 112.648C143.58 112.345 143.839 112.085 144.142 112.085H144.358C148.851 112.172 153.28 111.025 157.168 108.733C157.427 108.582 157.773 108.668 157.946 108.928C158.097 109.187 158.011 109.533 157.751 109.706C153.841 111.999 149.413 113.21 144.876 113.21H144.855Z" fill="black"/>
<path d="M147.641 120.131C145.654 120.131 144.336 119.871 144.207 119.85C143.904 119.785 143.71 119.482 143.775 119.179C143.839 118.876 144.142 118.682 144.444 118.725C144.509 118.725 151.919 120.152 158.875 115.935C159.134 115.784 159.48 115.849 159.652 116.13C159.804 116.389 159.739 116.735 159.458 116.908C155.094 119.569 150.623 120.109 147.663 120.109L147.641 120.131Z" fill="black"/>
<path d="M148.527 124.91C147.425 124.91 146.777 124.802 146.691 124.802C146.389 124.759 146.173 124.456 146.237 124.153C146.281 123.851 146.583 123.634 146.885 123.699C146.929 123.699 152.329 124.564 159.458 120.909C159.739 120.758 160.085 120.888 160.214 121.147C160.365 121.428 160.257 121.774 159.976 121.904C154.943 124.478 150.795 124.932 148.527 124.932V124.91Z" fill="black"/>
<path d="M150.471 131.572C148.657 131.572 147.512 131.269 147.404 131.247C147.101 131.161 146.929 130.858 147.015 130.555C147.101 130.253 147.404 130.08 147.706 130.166C147.771 130.166 153.841 131.745 160.538 127.203C160.797 127.03 161.143 127.095 161.316 127.354C161.489 127.614 161.424 127.96 161.165 128.133C156.952 130.988 153.042 131.593 150.471 131.593V131.572Z" fill="black"/>
<path d="M152.74 137.173C151.184 137.173 149.91 136.979 149.154 136.871C148.851 136.827 148.614 136.784 148.506 136.784C148.203 136.784 147.944 136.525 147.944 136.222C147.944 135.919 148.203 135.66 148.506 135.66C148.657 135.66 148.938 135.703 149.326 135.746C151.227 136.027 156.304 136.784 161.316 133.648C161.575 133.475 161.921 133.562 162.094 133.821C162.266 134.081 162.18 134.427 161.921 134.6C158.616 136.676 155.289 137.152 152.761 137.152L152.74 137.173Z" fill="black"/>
<path d="M153.949 142.602C152.027 142.602 150.407 142.364 149.434 142.213C149.067 142.169 148.83 142.126 148.7 142.126C148.398 142.126 148.138 141.867 148.138 141.564C148.138 141.261 148.398 141.002 148.7 141.002C148.851 141.002 149.175 141.045 149.607 141.11C151.832 141.434 157.773 142.321 162.461 139.185C162.72 139.012 163.066 139.077 163.238 139.336C163.411 139.596 163.346 139.942 163.087 140.115C160.128 142.105 156.736 142.58 153.971 142.58L153.949 142.602Z" fill="black"/>
<path d="M154.511 147.49C151.055 147.49 148.959 146.517 148.808 146.43C148.527 146.3 148.419 145.954 148.549 145.673C148.678 145.392 149.024 145.262 149.305 145.414C149.37 145.435 155.073 148.096 163.26 144.267C163.541 144.138 163.887 144.267 164.016 144.549C164.146 144.83 164.016 145.176 163.735 145.306C160.106 146.993 156.974 147.49 154.511 147.49Z" fill="black"/>
<path d="M155.116 152.27C150.471 152.27 148.095 150.475 147.944 150.366C147.706 150.172 147.663 149.826 147.836 149.566C148.03 149.328 148.376 149.263 148.635 149.458C148.678 149.501 153.69 153.2 163.476 149.372C163.757 149.263 164.103 149.393 164.211 149.696C164.319 149.977 164.189 150.323 163.887 150.431C160.387 151.794 157.449 152.248 155.116 152.248V152.27Z" fill="black"/>
<path d="M156.607 158.023C151.53 158.023 147.663 155.557 147.62 155.514C147.361 155.341 147.296 154.995 147.447 154.735C147.62 154.476 147.966 154.389 148.225 154.562C148.311 154.605 156.196 159.623 163.951 154.757C164.211 154.584 164.556 154.67 164.729 154.93C164.902 155.189 164.815 155.535 164.556 155.708C161.813 157.439 159.069 158.023 156.607 158.023Z" fill="black"/>
<path d="M157.492 164.9C150.903 164.9 146.648 160.856 146.583 160.791C146.367 160.575 146.345 160.207 146.583 159.991C146.799 159.774 147.166 159.753 147.382 159.991C147.641 160.25 153.906 166.155 163.13 162.716C163.411 162.608 163.757 162.759 163.865 163.04C163.973 163.343 163.822 163.667 163.541 163.776C161.381 164.576 159.35 164.9 157.514 164.9H157.492Z" fill="black"/>
<path d="M160.344 172.037C149.694 172.037 144.833 165.938 144.617 165.679C144.423 165.441 144.466 165.073 144.725 164.879C144.963 164.684 145.33 164.727 145.524 164.965C145.568 165.03 150.839 171.562 162.137 170.826C162.439 170.805 162.72 171.043 162.742 171.345C162.742 171.648 162.526 171.929 162.223 171.951C161.575 171.994 160.949 172.016 160.344 172.016V172.037Z" fill="black"/>
<path d="M159.89 180.169C159.89 180.169 159.847 180.169 159.825 180.169C147.123 178.828 142.846 170.891 142.651 170.545C142.5 170.264 142.608 169.918 142.889 169.788C143.17 169.637 143.515 169.745 143.645 170.026C143.688 170.112 147.857 177.769 159.933 179.045C160.236 179.088 160.473 179.348 160.43 179.672C160.409 179.953 160.149 180.169 159.868 180.169H159.89Z" fill="black"/>
<path d="M202.468 171.237C202.209 171.237 201.95 171.043 201.907 170.761L186.331 80.5735C186.288 80.2707 186.483 79.968 186.785 79.9247C187.088 79.8814 187.39 80.0761 187.433 80.3789L203.009 170.567C203.052 170.87 202.857 171.172 202.555 171.216C202.512 171.216 202.49 171.216 202.468 171.216V171.237Z" fill="black"/>
<path d="M205.126 171.237C204.866 171.237 204.65 171.064 204.586 170.805L201.928 160.142C201.842 159.839 202.036 159.537 202.339 159.45C202.641 159.385 202.944 159.558 203.03 159.861L205.687 170.524C205.774 170.826 205.579 171.129 205.277 171.216C205.234 171.216 205.19 171.216 205.147 171.216L205.126 171.237Z" fill="black"/>
<path d="M225.281 242.003C225.043 242.003 224.827 241.852 224.741 241.636L199.66 172.384C199.552 172.081 199.703 171.756 200.006 171.67C200.308 171.562 200.632 171.713 200.719 172.016L225.799 241.268C225.907 241.571 225.756 241.895 225.454 241.982C225.389 242.003 225.324 242.025 225.259 242.025L225.281 242.003Z" fill="black"/>
<path d="M221.479 242.955C221.479 242.955 233.252 247.518 235.542 246.761C237.832 246.004 241.634 241.052 241.245 238.391C240.856 235.731 234.03 234.196 234.03 234.196C234.03 234.196 232.129 238.759 228.716 241.052C225.302 243.344 221.5 242.955 221.5 242.955H221.479Z" fill="black"/>
<path d="M206.638 272.65L237.054 275.699C237.054 275.699 218.8 262.377 206.271 263.134C206.271 263.134 202.857 270.747 206.659 272.65H206.638Z" fill="black"/>
<path d="M234.397 273.212C234.397 273.212 234.203 273.191 234.116 273.126C233.857 272.974 233.77 272.628 233.922 272.347L259.002 230.108C259.153 229.848 259.499 229.762 259.78 229.913C260.039 230.065 260.125 230.411 259.974 230.692L234.894 272.931C234.786 273.104 234.591 273.212 234.419 273.212H234.397Z" fill="black"/>
<path d="M211.974 258.743C211.844 258.743 211.736 258.7 211.628 258.613C211.39 258.419 211.347 258.073 211.542 257.813L222.192 244.49C222.386 244.253 222.732 244.209 222.991 244.404C223.228 244.599 223.272 244.945 223.077 245.204L212.427 258.527C212.319 258.657 212.146 258.743 211.995 258.743H211.974Z" fill="black"/>
<path d="M130.446 185.512C130.144 185.512 129.884 185.252 129.884 184.928C129.884 183.76 133.838 176.752 138.46 174.438C138.741 174.287 139.087 174.416 139.217 174.698C139.346 174.979 139.238 175.325 138.957 175.455C134.529 177.661 131.094 184.192 131.008 184.949C131.008 185.252 130.748 185.512 130.446 185.512Z" fill="black"/>
<path d="M145.827 198.337C145.654 198.337 145.503 198.272 145.395 198.12C145.2 197.883 145.244 197.515 145.481 197.32C145.546 197.277 151.033 192.822 151.832 188.237C151.876 187.934 152.178 187.718 152.48 187.782C152.783 187.847 152.999 188.128 152.934 188.431C152.048 193.427 146.41 197.991 146.173 198.185C146.065 198.272 145.935 198.315 145.827 198.315V198.337Z" fill="black"/>
<path d="M142.975 197.472C142.824 197.472 142.651 197.407 142.543 197.277C142.349 197.039 142.37 196.693 142.608 196.477C142.673 196.434 148.83 191.07 151.033 186.658C151.163 186.377 151.508 186.269 151.789 186.398C152.07 186.528 152.178 186.874 152.048 187.155C149.737 191.762 143.623 197.104 143.364 197.32C143.256 197.407 143.127 197.45 142.997 197.45L142.975 197.472Z" fill="black"/>
<path d="M46.9308 221.457C46.7148 221.457 46.4988 221.327 46.4124 221.111C45.7427 219.424 43.2152 196.282 46.6932 187.307C50.02 178.699 60.4323 172.686 72.0113 172.686C72.3137 172.686 72.5729 172.946 72.5729 173.249C72.5729 173.551 72.3137 173.811 72.0113 173.811C60.886 173.811 50.9057 179.521 47.7301 187.718C44.3385 196.477 46.9524 219.467 47.4493 220.7C47.5573 220.981 47.4277 221.327 47.1252 221.435C47.0604 221.457 46.9956 221.479 46.9092 221.479L46.9308 221.457Z" fill="black"/>
<path d="M49.7608 220.895C49.4799 220.895 49.2423 220.678 49.1991 220.397C49.0911 219.489 46.65 198.185 49.804 190.724C49.9336 190.443 50.2576 190.313 50.5385 190.421C50.8193 190.551 50.9489 190.875 50.8409 191.156C47.7949 198.358 50.2792 220.051 50.3224 220.267C50.3656 220.57 50.128 220.851 49.8256 220.895C49.804 220.895 49.7824 220.895 49.7608 220.895Z" fill="black"/>
<path d="M107.547 261.425C99.0792 261.425 92.1664 260.949 91.7775 260.798C91.4751 260.69 91.3239 260.387 91.4103 260.084C91.4967 259.803 91.8207 259.63 92.1016 259.716C93.1385 259.933 122.475 261.641 134.226 257.445C134.529 257.337 134.853 257.489 134.939 257.792C135.047 258.094 134.896 258.419 134.594 258.505C128.134 260.819 116.88 261.403 107.526 261.403L107.547 261.425Z" fill="black"/>
<path d="M141.658 256.84C141.442 256.84 141.226 256.71 141.139 256.515C141.01 256.234 141.139 255.888 141.42 255.78C141.593 255.694 158.81 247.778 155.159 231.297C152.048 217.326 150.255 215.574 149.975 215.379C149.759 215.379 149.564 215.228 149.478 215.033C149.37 214.752 149.499 214.406 149.802 214.298C149.888 214.255 150.147 214.19 150.471 214.363C152.416 215.401 154.684 224.009 156.261 231.06C160.106 248.427 142.068 256.732 141.874 256.818C141.809 256.862 141.722 256.862 141.636 256.862L141.658 256.84Z" fill="black"/>
<path d="M68.2957 268.649C68.1444 268.649 67.9932 268.584 67.8852 268.454L43.5609 241.441C43.3448 241.203 43.3664 240.857 43.6041 240.641C43.8417 240.424 44.1873 240.446 44.4033 240.684L68.7277 267.697C68.9437 267.935 68.9221 268.281 68.6845 268.497C68.5765 268.605 68.4469 268.649 68.2957 268.649Z" fill="black"/>
<path d="M71.7305 268.259C71.5792 268.259 71.428 268.195 71.2984 268.065L44.6842 238.002C44.4681 237.764 44.4898 237.418 44.7274 237.202C44.965 236.986 45.3106 237.007 45.5267 237.245L72.1409 267.308C72.3569 267.546 72.3353 267.892 72.0977 268.108C71.9897 268.195 71.8601 268.259 71.7305 268.259Z" fill="black"/>
<path d="M88.0619 247.713C87.9107 247.713 87.7595 247.648 87.6299 247.518L65.2065 222.019C64.9905 221.781 65.0337 221.435 65.2497 221.219C65.4873 221.003 65.833 221.024 66.049 221.262L88.4724 246.761C88.6884 246.999 88.6452 247.345 88.4292 247.562C88.3211 247.648 88.1915 247.713 88.0619 247.713Z" fill="black"/>
<path d="M88.4508 242.393C88.2995 242.393 88.1483 242.328 88.0403 242.22L69.7862 222.819C69.5702 222.582 69.5918 222.236 69.8078 222.019C70.0239 221.803 70.3911 221.825 70.6071 222.041L88.8612 241.441C89.0772 241.679 89.0556 242.025 88.8396 242.241C88.7316 242.349 88.602 242.393 88.4508 242.393Z" fill="black"/>
<path d="M105.538 265.318C100.635 265.318 95.3852 265.167 89.8117 264.885C89.1853 264.864 88.71 264.323 88.7316 263.696C88.7532 263.069 89.2717 262.593 89.9197 262.615C128.459 264.583 150.731 259.846 157.989 248.167C163.325 239.581 160.97 227.21 150.363 208.069C135.501 181.294 103.27 174.07 90.0926 172.189C72.5298 169.702 55.8527 171.821 50.4304 177.228C38.5923 189.015 44.4898 223.879 44.5546 224.225C44.6626 224.831 44.2521 225.415 43.6257 225.523C42.9992 225.631 42.4159 225.22 42.3295 224.593C42.0703 223.122 36.1728 188.215 48.8319 175.606C54.8157 169.637 71.9033 167.323 90.4166 169.918C103.918 171.821 136.991 179.261 152.351 206.923C163.411 226.864 165.766 239.949 159.933 249.313C153.28 259.998 135.436 265.253 105.56 265.253L105.538 265.318Z" fill="black"/>
<path d="M66.1138 276.154C49.5015 276.154 36 262.204 36 245.074C36 227.945 49.5015 213.995 66.1138 213.995C82.7261 213.995 96.2276 227.945 96.2276 245.074C96.2276 262.204 82.7261 276.154 66.1138 276.154ZM66.1138 216.245C50.7545 216.245 38.2683 229.178 38.2683 245.074C38.2683 260.971 50.7545 273.904 66.1138 273.904C81.4732 273.904 93.9594 260.971 93.9594 245.074C93.9594 229.178 81.4732 216.245 66.1138 216.245Z" fill="black"/>
<path d="M66.1138 269.968C52.8067 269.968 41.9839 258.808 41.9839 245.075C41.9839 231.341 52.8067 220.181 66.1138 220.181C79.4209 220.181 90.2438 231.341 90.2438 245.075C90.2438 258.808 79.4209 269.968 66.1138 269.968ZM66.1138 222.43C54.0597 222.43 44.2521 232.595 44.2521 245.075C44.2521 257.554 54.0597 267.719 66.1138 267.719C78.168 267.719 87.9755 257.554 87.9755 245.075C87.9755 232.595 78.168 222.43 66.1138 222.43Z" fill="black"/>
<path d="M146.821 201.754C146.432 201.754 146.043 201.538 145.827 201.17C145.524 200.629 145.719 199.937 146.259 199.635C148.635 198.294 152.696 193.449 153.193 190.875C153.28 188.518 140.145 176.039 136.257 174.806C134.334 174.179 130.295 179.78 128.091 184.041C127.81 184.603 127.119 184.82 126.579 184.538C126.017 184.257 125.801 183.565 126.082 183.024C127.098 181.035 132.412 171.216 136.927 172.665C140.707 173.876 156.153 187.328 155.375 191.33C154.705 194.833 149.953 200.154 147.339 201.624C147.166 201.732 146.972 201.776 146.777 201.776L146.821 201.754Z" fill="black"/>
<path d="M153.366 189.837C152.999 189.837 152.653 189.664 152.437 189.34C151.832 188.453 152.61 187.739 153.172 187.22C159.998 180.97 163.368 170.394 163.195 155.752C163.066 143.229 159.091 122.856 155.246 103.153C150.968 81.2873 146.95 60.6111 148.484 52.2412C149.867 44.6282 156.11 38.7238 163.346 38.1831C171.555 37.5559 178.727 43.7847 182.508 54.8365C182.702 55.4205 182.4 56.0693 181.817 56.2639C181.233 56.4586 180.585 56.1558 180.391 55.5719C176.913 45.4068 170.756 39.9133 163.519 40.454C157.319 40.9299 151.919 46.0556 150.709 52.6737C149.262 60.6328 153.237 81.0926 157.471 102.764C161.337 122.553 165.334 143.035 165.464 155.773C165.636 171.086 162.007 182.246 154.706 188.929C154.576 189.037 154.489 189.123 154.403 189.21C154.317 189.383 154.187 189.556 154.014 189.664C153.82 189.794 153.604 189.859 153.366 189.859V189.837Z" fill="black"/>
<path d="M139.497 174.763C139.13 174.763 138.784 174.59 138.568 174.265C137.942 173.357 138.784 172.643 139.173 172.275C145.935 166.285 147.231 153.005 147.123 142.948C147.015 132.567 143.731 118.595 140.253 103.824C134.939 81.2225 129.452 57.8429 134.982 44.996C141.204 30.527 152.308 22.5247 165.464 23.0221C178.727 23.5196 191.062 32.8411 195.469 45.688C195.664 46.272 195.361 46.9208 194.778 47.1155C194.195 47.3101 193.547 47.0073 193.352 46.4234C189.248 34.4416 177.755 25.7472 165.399 25.293C153.258 24.8389 142.911 32.3437 137.078 45.9043C131.85 58.0808 137.251 81.0711 142.479 103.326C145.978 118.249 149.283 132.329 149.413 142.948C149.586 158.282 146.648 168.728 140.707 173.984C140.642 174.027 140.599 174.071 140.556 174.114C140.469 174.287 140.34 174.438 140.167 174.568C139.973 174.698 139.757 174.763 139.519 174.763H139.497Z" fill="black"/>
<path d="M184.344 80.6169C184.236 80.6169 184.128 80.6169 184.042 80.6169C180.52 80.206 178.619 67.3374 177.647 56.61C177.626 56.2856 177.734 55.9828 177.928 55.7449C178.079 55.5719 178.295 55.4421 178.511 55.3989C180.067 54.7717 192.337 46.9857 195.167 43.8713C196.031 42.898 196.96 43.2441 197.219 43.3738C200.913 45.1689 200.589 71.7927 199.725 76.8104C199.639 77.2429 199.315 77.6106 198.883 77.7188C196.852 78.2162 186.915 80.6385 184.322 80.6385L184.344 80.6169ZM179.959 57.1507C180.888 66.8616 182.854 77.5241 184.387 78.3892C185.295 78.4974 191.732 77.1348 197.608 75.6857C198.688 67.8997 197.91 49.4512 196.398 45.8178C193.309 48.7808 183.502 55.3556 179.937 57.1724L179.959 57.1507Z" fill="black"/>
<path d="M199.25 171.194C198.71 171.194 198.234 170.805 198.148 170.242L183.091 79.6653C182.983 79.0597 183.394 78.4757 184.02 78.3676C184.646 78.2595 185.208 78.6704 185.316 79.2976L200.373 169.875C200.481 170.48 200.071 171.064 199.444 171.172C199.379 171.172 199.315 171.172 199.25 171.172V171.194Z" fill="black"/>
<path d="M213.572 167.236C213.032 167.236 212.557 166.847 212.47 166.285L197.543 76.7672C197.435 76.1616 197.846 75.5777 198.472 75.4695C199.099 75.3614 199.66 75.7723 199.768 76.3995L214.696 165.917C214.804 166.522 214.393 167.106 213.767 167.215C213.702 167.215 213.637 167.215 213.572 167.215V167.236Z" fill="black"/>
<path d="M199.725 172.751C198.234 172.751 196.765 172.427 196.161 171.237C195.188 169.377 197.219 167.02 197.63 166.587C198.062 166.133 198.775 166.111 199.228 166.522C199.682 166.955 199.703 167.669 199.293 168.123C198.58 168.901 198.062 169.94 198.17 170.199C198.17 170.199 198.71 170.761 201.626 170.351C209.057 169.312 215.149 165.744 216.056 164.468C215.732 164.273 214.609 164.078 213.572 164.143C212.946 164.165 212.406 163.711 212.384 163.084C212.341 162.456 212.816 161.916 213.443 161.894C214.199 161.851 218.044 161.721 218.39 164.23C218.8 167.236 209.317 171.562 201.95 172.578C201.28 172.665 200.503 172.751 199.747 172.751H199.725Z" fill="black"/>
<path d="M223.725 243.539C222.991 243.539 222.408 243.431 222.105 243.171C221.76 242.912 220.96 242.285 195.642 171.129C195.426 170.545 195.729 169.896 196.333 169.68C196.917 169.464 197.565 169.767 197.781 170.372C207.264 197.018 221.587 236.856 223.574 241.29C224.762 241.333 228.327 240.727 230.509 238.543C231.999 237.051 232.474 235.083 231.891 232.725C229.709 223.901 216.316 165.182 216.186 164.598C216.056 163.992 216.424 163.386 217.029 163.235C217.633 163.084 218.238 163.473 218.39 164.079C218.519 164.662 231.913 223.36 234.095 232.163C235.045 235.991 233.792 239.278 230.552 241.398C228.456 242.76 225.626 243.517 223.769 243.517L223.725 243.539Z" fill="black"/>
<path d="M235.067 247.843C231.632 247.843 225.194 244.793 222.278 243.301C221.716 243.02 221.5 242.349 221.781 241.787C222.062 241.225 222.732 241.008 223.293 241.29C228.759 244.058 234.44 246.048 235.455 245.55C238.609 243.928 240.834 240.857 240.208 238.975C239.798 237.699 235.866 235.126 232.453 233.46C231.891 233.179 231.653 232.509 231.934 231.946C232.215 231.384 232.885 231.146 233.446 231.427C234.764 232.076 241.418 235.45 242.347 238.262C243.448 241.614 240.23 245.615 236.492 247.54C236.125 247.735 235.628 247.821 235.067 247.821V247.843Z" fill="black"/>
<path d="M237.745 276.932C237.465 276.932 237.184 276.824 236.989 276.629C230.66 270.811 215.02 266.875 208.344 265.21C206.789 264.821 205.752 264.561 205.234 264.388C204.758 264.215 204.413 263.847 204.283 263.35C203.57 260.711 212.816 249.378 220.679 240.338C221.09 239.862 221.803 239.819 222.278 240.23C222.753 240.641 222.796 241.354 222.386 241.83C215.128 250.157 207.588 259.738 206.595 262.442C207.156 262.593 207.956 262.788 208.906 263.026C215.408 264.669 230.206 268.389 237.465 274.077C246.926 257.965 260.514 234.542 261.681 231.73C260.342 229.567 245.133 224.571 241.979 224.809C239.776 225.004 236.06 228.94 234.246 231.362C233.878 231.86 233.166 231.968 232.669 231.579C232.172 231.211 232.064 230.497 232.453 230C232.993 229.265 237.875 222.884 241.807 222.538C245.112 222.236 260.73 226.864 263.452 230.281C264.1 231.081 264.057 231.795 263.906 232.228C262.999 235.018 241.223 272.109 238.739 276.327C238.566 276.629 238.264 276.824 237.94 276.867C237.875 276.867 237.832 276.867 237.767 276.867L237.745 276.932Z" fill="black"/>
<path d="M237.745 276.932C237.745 276.932 237.681 276.932 237.637 276.932C232.734 276.478 208.107 274.099 205.666 272.845C202.814 271.374 203.592 264.345 203.894 262.225C203.981 261.598 204.564 261.166 205.169 261.274C205.795 261.36 206.206 261.944 206.119 262.55C205.558 266.443 205.838 270.379 206.703 270.833C208.215 271.569 223.877 273.364 237.832 274.683C238.458 274.748 238.912 275.289 238.847 275.916C238.782 276.5 238.307 276.932 237.724 276.932H237.745Z" fill="black"/>
<path d="M80.5875 219.337C80.5875 219.337 80.4795 219.337 80.4147 219.337C79.7882 219.251 79.3778 218.667 79.4642 218.061C79.4642 217.953 81.0411 206.901 75.8998 203.982C71.32 201.386 50.1496 203.203 42.3943 204.111C41.7895 204.176 41.2062 203.744 41.1414 203.117C41.0766 202.489 41.5086 201.927 42.1351 201.862C45.0731 201.516 70.9744 198.575 77.0231 201.992C83.5254 205.69 81.7972 217.867 81.7108 218.386C81.6244 218.948 81.1492 219.359 80.5875 219.359V219.337Z" fill="black"/>
<path d="M137.726 219.359C134.961 219.359 132.174 218.991 129.539 218.191C121.999 215.942 116.88 210.859 115.173 203.874C110.874 186.442 122.129 180.408 122.237 180.364C122.799 180.083 123.468 180.299 123.749 180.84C124.03 181.402 123.814 182.073 123.274 182.354C122.842 182.57 113.51 187.718 117.355 203.333C118.867 209.518 123.425 214.017 130.187 216.028C138.136 218.386 147.447 216.785 152.351 212.222C152.804 211.789 153.517 211.811 153.949 212.287C154.381 212.741 154.36 213.455 153.885 213.887C150.104 217.413 144.012 219.381 137.726 219.381V219.359Z" fill="black"/>
<path d="M133.773 238.002C128.545 238.002 122.885 237.721 117.009 237.007C95.4932 234.412 94.4778 222.755 93.8298 215.055C93.765 214.298 93.7002 213.563 93.6137 212.871C93.4409 211.335 92.728 210.232 91.4751 209.518C88.1699 207.615 81.9052 208.87 80.4578 209.518C79.8962 209.778 79.2265 209.518 78.9673 208.935C78.708 208.372 78.9673 207.702 79.5505 207.442C81.0843 206.75 88.2347 205.063 92.5984 207.55C94.4778 208.632 95.6012 210.384 95.8604 212.611C95.9468 213.325 96.0116 214.082 96.0764 214.861C96.7461 222.668 97.5886 232.401 117.29 234.78C140.189 237.548 158.183 233.806 160.193 232.509C160.711 232.163 161.424 232.314 161.748 232.855C162.094 233.374 161.942 234.088 161.402 234.412C159.177 235.839 148.203 238.024 133.773 238.024V238.002Z" fill="black"/>
<path d="M114.655 126.943C114.525 126.943 114.417 126.9 114.309 126.835C111.522 124.694 102.708 104.58 98.5823 90.9549C98.4959 90.6521 98.6687 90.3493 98.9495 90.2411C99.252 90.1546 99.5544 90.3276 99.6624 90.6088C103.961 104.84 112.602 124.089 114.979 125.927C115.216 126.122 115.281 126.468 115.087 126.727C114.979 126.879 114.806 126.943 114.633 126.943H114.655Z" fill="black"/>
<path d="M112.602 133.389C112.451 133.389 112.3 133.324 112.192 133.216C104.739 125.386 96.3789 96.405 96.0332 95.1722C95.9468 94.8695 96.1196 94.5667 96.4221 94.4802C96.7245 94.3936 97.0269 94.5667 97.1134 94.8695C97.1998 95.1722 105.754 124.824 113.013 132.437C113.229 132.653 113.229 133.021 113.013 133.237C112.905 133.345 112.754 133.389 112.624 133.389H112.602Z" fill="black"/>
<path d="M106.489 129.366C106.294 129.366 106.122 129.279 106.014 129.106C98.7767 117.319 93.873 98.0489 93.8082 97.8542C93.7217 97.5514 93.9162 97.2486 94.2186 97.1621C94.521 97.0756 94.8235 97.2703 94.9099 97.573C94.9531 97.7677 99.8352 116.843 106.964 128.501C107.137 128.76 107.05 129.106 106.77 129.279C106.683 129.344 106.575 129.366 106.467 129.366H106.489Z" fill="black"/>
<path d="M104.998 138.752C104.869 138.752 104.761 138.709 104.653 138.623C102.471 136.871 98.1935 128.371 94.8019 117.125C94.7155 116.822 94.8883 116.519 95.1691 116.411C95.4715 116.324 95.774 116.497 95.882 116.778C99.5112 128.782 103.68 136.373 105.344 137.714C105.581 137.909 105.625 138.255 105.43 138.514C105.322 138.644 105.149 138.731 104.998 138.731V138.752Z" fill="black"/>
</svg>
